<?xml version="1.0" encoding="utf-8"?>
<!-- Generator: Adobe Illustrator 23.0.2, SVG Export Plug-In . SVG Version: 6.00 Build 0)  -->
<svg version="1.1" id="Layer_1" xmlns="http://www.w3.org/2000/svg" xmlns:xlink="http://www.w3.org/1999/xlink" x="0px" y="0px"
	 viewBox="0 0 2940 152" style="enable-background:new 0 0 2940 152;" xml:space="preserve">
<style type="text/css">
	.st0{fill:none;stroke:#91C8CD;stroke-width:7;stroke-linecap:round;stroke-linejoin:round;}
</style>
<title>separator2</title>
<g id="Layer_3">
	<path class="st0" d="M13.5,66c36.4,0,36.4,20.2,72.8,20.2S122.7,66,159.1,66s36.4,20.2,72.9,20.2S268.4,66,304.8,66
		s36.4,20.2,72.8,20.2S414,66,450.4,66s36.4,20.2,72.8,20.2S559.7,66,596.1,66s36.4,20.2,72.8,20.2S705.3,66,741.7,66
		s36.4,20.2,72.8,20.2S851,66,887.4,66s36.4,20.2,72.8,20.2S996.6,66,1033,66s36.4,20.2,72.8,20.2s36.4-20.2,72.8-20.2
		s36.4,20.2,72.8,20.2s36.4-20.2,72.8-20.2s36.4,20.2,72.8,20.2S1433.6,66,1470,66s36.4,20.2,72.8,20.2s36.4-20.2,72.8-20.2
		s36.4,20.2,72.8,20.2s36.4-20.2,72.8-20.2s36.4,20.2,72.8,20.2s36.4-20.2,72.8-20.2s36.4,20.2,72.8,20.2s36.4-20.2,72.8-20.2
		c36.4,0,36.4,20.2,72.8,20.2s36.4-20.2,72.8-20.2s36.4,20.2,72.8,20.2s36.4-20.2,72.8-20.2s36.4,20.2,72.8,20.2
		s36.4-20.2,72.8-20.2s36.4,20.2,72.8,20.2s36.4-20.2,72.8-20.2s36.4,20.2,72.8,20.2s36.4-20.2,72.8-20.2s36.4,20.2,72.8,20.2
		s36.4-20.2,72.8-20.2"/>
</g>
</svg>
