<svg xmlns="http://www.w3.org/2000/svg" viewBox="0 0 2940 152"><defs><style>.cls-1{fill:none;stroke:#66a094;stroke-linecap:round;stroke-linejoin:round;stroke-width:7px;}</style></defs><title>separator2</title><g id="Layer_3" data-name="Layer 3"><path class="cls-1" d="M13.5,66c36.41,0,36.41,20.16,72.82,20.16S122.73,66,159.14,66,195.55,86.19,232,86.19,268.37,66,304.78,66s36.41,20.16,72.83,20.16S414,66,450.43,66s36.41,20.16,72.82,20.16S559.66,66,596.07,66s36.41,20.16,72.82,20.16S705.3,66,741.72,66s36.41,20.16,72.82,20.16S851,66,887.37,66s36.41,20.16,72.82,20.16S996.6,66,1033,66s36.42,20.16,72.83,20.16S1142.25,66,1178.66,66s36.41,20.16,72.83,20.16S1287.9,66,1324.31,66s36.41,20.16,72.83,20.16S1433.55,66,1470,66s36.41,20.16,72.82,20.16S1579.2,66,1615.61,66s36.41,20.16,72.82,20.16S1724.85,66,1761.26,66s36.41,20.16,72.83,20.16S1870.5,66,1906.91,66s36.41,20.16,72.83,20.16S2016.15,66,2052.56,66s36.41,20.16,72.82,20.16S2161.79,66,2198.2,66s36.42,20.16,72.83,20.16S2307.45,66,2343.86,66s36.41,20.16,72.83,20.16S2453.1,66,2489.52,66s36.41,20.16,72.82,20.16S2598.76,66,2635.17,66s36.41,20.16,72.83,20.16S2744.42,66,2780.83,66s36.42,20.16,72.84,20.16S2890.08,66,2926.5,66"/></g></svg>